<?xml version="1.0" encoding="UTF-8"?>
<svg xmlns="http://www.w3.org/2000/svg" xmlns:xlink="http://www.w3.org/1999/xlink" width="200px" height="20px" viewBox="0 0 197 20" version="1.1">
<g id="surface1">
<path style=" stroke:none;fill-rule:nonzero;fill:rgb(100%,100%,100%);fill-opacity:1;" d="M 178.988281 19.570312 L 178.988281 7.015625 L 170.75 7.015625 L 170.75 0.429688 L 196.976562 0.429688 L 196.976562 7.015625 L 188.738281 7.015625 L 188.738281 19.570312 Z M 178.988281 19.570312 "/>
<path style=" stroke:none;fill-rule:nonzero;fill:rgb(100%,100%,100%);fill-opacity:1;" d="M 145.75 0.429688 L 168.769531 0.429688 L 168.769531 5.78125 L 155.347656 5.78125 L 155.347656 7.273438 L 168.617188 7.273438 L 168.617188 12.523438 L 155.347656 12.523438 L 155.347656 14.167969 L 168.871094 14.167969 L 168.871094 19.570312 L 145.75 19.570312 Z M 145.75 0.429688 "/>
<path style=" stroke:none;fill-rule:nonzero;fill:rgb(100%,100%,100%);fill-opacity:1;" d="M 114.699219 19.570312 L 114.699219 0.429688 L 135.722656 0.429688 C 141.523438 0.429688 142.957031 2.589844 142.957031 4.726562 L 142.957031 4.882812 C 142.957031 7.042969 141.085938 8.277344 139.160156 8.6875 C 141.625 9.101562 144.089844 10.359375 144.089844 13.757812 L 144.089844 13.960938 C 144.089844 16.972656 142.007812 19.570312 135.722656 19.570312 Z M 131.28125 5.394531 L 124.453125 5.394531 L 124.453125 7.246094 L 131.28125 7.246094 C 132.488281 7.246094 133 7.015625 133 6.320312 L 133 6.269531 C 133 5.550781 132.488281 5.394531 131.28125 5.394531 Z M 131.667969 12.058594 L 124.453125 12.058594 L 124.453125 14.425781 L 131.667969 14.425781 C 133.335938 14.425781 133.71875 13.9375 133.71875 13.214844 L 133.71875 13.164062 C 133.71875 12.445312 133.335938 12.058594 131.667969 12.058594 Z M 131.667969 12.058594 "/>
<path style=" stroke:none;fill-rule:nonzero;fill:rgb(100%,100%,100%);fill-opacity:1;" d="M 96.601562 0.0429688 L 97.882812 0.0429688 C 110.792969 0.0429688 112.742188 5.550781 112.742188 9.5625 L 112.742188 10.335938 C 112.742188 14.269531 110.765625 19.957031 97.882812 19.957031 L 96.601562 19.957031 C 83.742188 19.957031 81.738281 14.269531 81.738281 10.335938 L 81.738281 9.5625 C 81.738281 5.550781 83.691406 0.0429688 96.601562 0.0429688 Z M 102.683594 10.078125 L 102.683594 9.71875 C 102.683594 8.046875 101.398438 6.140625 97.214844 6.140625 C 92.980469 6.140625 91.773438 8.046875 91.773438 9.71875 L 91.773438 10.027344 C 91.773438 11.75 93.109375 13.808594 97.214844 13.808594 C 101.375 13.808594 102.683594 11.828125 102.683594 10.078125 Z M 102.683594 10.078125 "/>
<path style=" stroke:none;fill-rule:nonzero;fill:rgb(100%,100%,100%);fill-opacity:1;" d="M 68.8125 11.621094 L 66.480469 6.320312 L 64.195312 11.621094 Z M 72.304688 19.570312 L 71.304688 17.28125 L 61.757812 17.28125 L 60.753906 19.570312 L 50.898438 19.570312 L 59.910156 0.429688 L 73.613281 0.429688 L 83.1875 19.570312 Z M 72.304688 19.570312 "/>
<path style=" stroke:none;fill-rule:nonzero;fill:rgb(100%,100%,100%);fill-opacity:1;" d="M 45.75 9.105469 L 36.714844 0.4375 L 49.78125 0.4375 Z M 45.75 9.105469 "/>
<path style=" stroke:none;fill-rule:nonzero;fill:rgb(100%,100%,100%);fill-opacity:1;" d="M 34.273438 10.714844 L 43.785156 19.554688 L 30.171875 19.554688 Z M 34.273438 10.714844 "/>
<path style=" stroke:none;fill-rule:nonzero;fill:rgb(100%,100%,100%);fill-opacity:1;" d="M 0 19.550781 L 19.335938 19.554688 L 28.476562 0.449219 Z M 0 19.550781 "/>
</g>
</svg>
